# xmcd
#
# Track frame offsets: 
#        150
#        20675
#        33860
#        59250
#        72882
#        87004
#        117323
#        122626
#        139264
#        150844
#
# Disc length: 2293 seconds
#
# Revision: 2
# Processed by: cddbd v1.5.2PL0 Copyright (c) Steve Scherf et al.
# Submitted via: ExactAudioCopyFreeDBPlugin 1.0
#
DISCID=7a08f30a
DTITLE=The Spinners - S.O.U.L
DYEAR=2011
DGENRE=Soul
TTITLE0=Could It Be I'm Falling In Love
TTITLE1=Games People Play
TTITLE2=Funny
TTITLE3=I'll Be Around
TTITLE4=It's A Shame
TTITLE5=Mighty Love
TTITLE6=One Of A Kind
TTITLE7=Rubberband Man
TTITLE8=Then Come You
TTITLE9=Working My Way Back To You
EXTD=
EXTT0=
EXTT1=
EXTT2=
EXTT3=
EXTT4=
EXTT5=
EXTT6=
EXTT7=
EXTT8=
EXTT9=
PLAYORDER=
